<?xml version="1.0" encoding="utf-8"?>
<!-- Generator: Adobe Illustrator 23.0.2, SVG Export Plug-In . SVG Version: 6.00 Build 0)  -->
<svg version="1.1" id="Capa_1" xmlns="http://www.w3.org/2000/svg" xmlns:xlink="http://www.w3.org/1999/xlink" x="0px" y="0px"
	 viewBox="0 0 430.1 430.1" style="enable-background:new 0 0 430.1 430.1;" xml:space="preserve">
<style type="text/css">
	.st0{fill:#727271;}
</style>
<g>
	<path id="ShareThis" class="st0" d="M151.8,215.1c0,1.5-0.3,2.9-0.4,4.3l154.1,77c13.2-11.2,30.1-18.1,48.7-18.1
		c41.9,0,75.9,34,75.9,75.9c0,42-34,75.9-75.9,75.9c-42,0-75.9-34-75.9-75.9c0-1.5,0.3-2.9,0.4-4.3l-154.1-77
		c-13.2,11.1-30.1,18.1-48.7,18.1C34,290.9,0,257,0,215.1c0-42,34-75.9,75.9-75.9c18.6,0,35.5,7,48.7,18.1l154.1-77
		c-0.1-1.5-0.4-2.9-0.4-4.4C278.3,34,312.3,0,354.2,0c41.9,0,75.9,34,75.9,75.9c0,42-34,75.9-75.9,75.9c-18.7,0-35.5-7-48.7-18.2
		l-154.1,77.1C151.5,212.2,151.8,213.5,151.8,215.1z"/>
</g>
</svg>
